# xmcd
#
# Track frame offsets:
#	150
#	17336
#	36985
#	58611
#	76149
#	92810
#	109655
#	125073
#	139087
#	156509
#	170673
#	183639
#	198272
#	208061
#	223209
#	234848
#	248166
#	260595
#	277119
#	294911
#	306555
#	325469
#
# Disc length: 4504 seconds
#
# Revision: 2
# Processed by: cddbd v1.5.2PL0 Copyright (c) Steve Scherf et al.
# Submitted via: EasyCDDAExtractor 8.0.1.1
#
DISCID=52119616
DTITLE=Jools Holland and His Rhythm and Blues Orchestra - Moving Out To The Countr
DTITLE=y
DYEAR=2006
DGENRE=Country
TTITLE0=Darkness on the Face of the Earth (with KT Tunstall)
TTITLE1=I'm So Lonesome I Could Cry (with Richard Hawley)
TTITLE2=Moving Out to the Country (with Solomon Burke)
TTITLE3=She'll Have to Go (with Lulu)
TTITLE4=For the Good Times (with Bob Geldof)
TTITLE5=Georgia on My Mind (with India Arie)
TTITLE6=Dreaming My Dreams with You (with Brian Eno)
TTITLE7=You Win Again (with Mark Knopfler)
TTITLE8=Misty Blue (with David McAlmont)
TTITLE9=I Wish I Was 18 Again (with Tom Jones)
TTITLE10=Sweet Dreams (with Louise Marshall)
TTITLE11=Games People Play (with Marc Almond)
TTITLE12=Boogie Woogie Country Girl
TTITLE13=Take These Chains From My Heary (with Paul Carrack)
TTITLE14=Rocket to The Moon
TTITLE15=It Ain't Gonna Worry My Mind (with Ruby Turner)
TTITLE16=Friends Not Lovers (with Tom Jones)
TTITLE17=I Can't Stop Loving You (with Lulu)
TTITLE18=Dead Hosts Welcome (with Dr. John)
TTITLE19=Feel Like Going Home (with Sam Brown)
TTITLE20=The Pilgrim (with Bob Geldof)
TTITLE21=Where Do I Go From Here
EXTD=
EXTT0=
EXTT1=
EXTT2=
EXTT3=
EXTT4=
EXTT5=
EXTT6=
EXTT7=
EXTT8=
EXTT9=
EXTT10=
EXTT11=
EXTT12=
EXTT13=
EXTT14=
EXTT15=
EXTT16=
EXTT17=
EXTT18=
EXTT19=
EXTT20=
EXTT21=
PLAYORDER=
